<svg xmlns="http://www.w3.org/2000/svg" height="71.053" width="466.853" xml:space="preserve"><path style="fill:#fff;fill-opacity:1;fill-rule:nonzero;stroke:none" d="M734.785 116.766c-27.91-1.18-76.152-2.703-100.851-2.703-71.239 0-136.903 3.886-136.903 96.281v299.011h80.215V232.676c0-43.828 7.949-53.633 55.164-53.633h102.375v-62.277M952.527 265.848c0 72.937-12.519 94.254-60.066 94.254-47.383 0-59.57-18.95-59.57-94.254 0-75.645 12.187-94.254 59.57-94.254 47.547 0 60.066 20.984 60.066 94.254zm-195.105 0c0 112.359 35.879 154.668 135.039 154.668 99.336 0 135.209-43.661 135.209-154.668 0-111.344-35.873-154.832-135.209-154.832-99.16 0-135.039 42.129-135.039 154.832M1153.38 269.063c0-52.629 3.04-92.051 73.79-92.051 13.19 0 29.94 2.707 42.3 6.601v129.614c0 13.539-.51 28.261-1.86 40.445-11.34 5.25-30.46 7.953-46.88 7.953-62.1 0-67.35-45.516-67.35-92.562zm-51.27-200.696c30.12-4.226 74.45-8.797 109.31-8.797 40.46 0 58.05 18.614 58.05 55.672v8.969c-18.1-3.898-39.26-6.438-57.54-6.438-91.54 0-134.02 36.731-134.02 151.29 0 115.746 44.51 151.453 142.82 151.453 40.78 0 87.32-8.125 121.16-27.922 1.86-19.293 2.54-36.719 2.54-57.199V97.637c0-78.684-56.18-97.637-123.7-97.637-44.84 0-93.07 7.11-124.72 12.695l6.1 55.672M148.125 313.945c0 28.008 22.703 50.711 50.711 50.711 28 0 50.695-22.754 50.723-50.711 0-28.047-22.723-50.769-50.723-50.769-28.008 0-50.691 22.722-50.711 50.769M148.145 165.848c0 27.968 22.695 50.644 50.691 50.644 27.98 0 50.695-22.676 50.723-50.644.011-28.067-22.723-50.731-50.723-50.731-28.008 0-50.691 22.715-50.691 50.731M296.27 313.945c0 27.957 22.695 50.711 50.703 50.711 28.007 0 50.695-22.754 50.695-50.711.027-28.047-22.688-50.769-50.715-50.715-27.988-.054-50.683 22.668-50.683 50.715M0 165.848c0 27.968 22.715 50.644 50.742 50.644 27.988 0 50.703-22.676 50.703-50.644 0-28.067-22.715-50.782-50.703-50.782C22.734 115.066 0 137.832 0 165.848M296.27 462.031c-.02 28.008 22.675 50.742 50.683 50.742 28.008-.019 50.715-22.734 50.715-50.769 0-27.981-22.707-50.676-50.715-50.676-28.008.012-50.683 22.695-50.683 50.703M.027 313.945c0 27.957 22.707 50.711 50.715 50.692 27.988 0 50.703-22.735 50.703-50.711.008-28.028-22.695-50.75-50.703-50.75-28.027 0-50.715 22.722-50.715 50.769M148.145 462.031c0 27.981 22.683 50.723 50.703 50.723 28.015 0 50.711-22.715 50.711-50.75 0-28-22.723-50.676-50.711-50.676-28.02 0-50.703 22.695-50.703 50.703M1518.95 329.137c16.23-1.864 32.32-2.032 48.73-2.032 49.59 0 78.85 12.696 78.85 62.782 0 43.66-19.63 61.09-77.15 61.09-15.75 0-34.2-1.188-50.43-3.383zm0-214.059h-79.88V502.59c34.18 6.258 81.06 10.828 128.27 10.828 87.15 0 158.38-17.262 158.38-123.871 0-69.719-29.27-102.543-75.63-116.598l90.03-157.871h-92.06l-80.89 148.738c-16.08 0-34.36.852-48.22 1.692v-150.43M1986.58 115.078v183.43c0 42.808-7.78 60.922-62.61 60.922-16.74 0-34.18-3.391-48.56-9.481V115.078h-75.14v417.797h75.14V410.867c19.79 5.926 42.13 9.649 67.01 9.649 108.47 0 119.47-51.446 119.47-114.731V115.078h-75.31M2304.55 416.453h76.49L2240.75 4.063h-76.48l47.37 132.167-121.15 280.223h79.71l75.46-185.965 58.89 185.965M2536.6 501.57v-85.117h60.58V359.43h-60.58V203.574c0-25.039 10.49-34.863 35.7-34.863 8.46 0 16.76.344 25.38 1.016l5.76-53.465c-16.08-2.883-35.53-5.246-51.6-5.246-63.46 0-90.2 27.754-90.2 84.941V359.43h-49.25v57.023h49.25v72.938l74.96 12.179M2851.48 115.078v183.43c0 42.808-7.78 60.922-62.6 60.922-16.75 0-34.19-3.391-48.57-9.481V115.078h-75.14v417.797h75.14V410.867c19.8 5.926 42.13 9.649 67.01 9.649 108.47 0 119.48-51.446 119.48-114.731V115.078h-75.32M3067.13 115.078h-74.81v220.317c0 20.48.86 37.906 2.54 57.199 33.52 17.937 80.9 27.922 127.6 27.922 33.17 0 56.52-6.43 72.76-17.258 27.08 10.32 60.07 17.258 92.06 17.258 96.45 0 110.67-51.953 110.67-113.547V115.078h-74.96v185.121c0 39.094-9.31 60.074-51.62 60.074-11.67 0-29.27-3.046-42.97-9.984 3.05-13.535 4.06-28.094 4.06-43.32V115.078h-74.97v185.121c0 38.414-8.97 60.074-50.09 60.074-12.86 0-29.1-3.382-38.42-7.953-1.34-12.183-1.85-26.906-1.85-40.445V115.078M3456.32 394.75v-9.91h4.67c6.13 0 8.63 1.672 8.63 5.066 0 3.563-2.67 4.844-8.79 4.844zm0-35.508h-10.13v43.965h15.97c12.47 0 17.42-4.785 17.42-13.301 0-5.789-2.61-10.129-7.96-11.91l9.19-18.754h-11.36l-8.18 17.141h-4.95zm4.9 51.645c-16.98 0-30.22-13.301-30.22-30.496 0-17.422 13.24-30.723 30.22-30.723 16.97 0 30.16 13.301 30.16 30.723 0 17.195-13.19 30.496-30.16 30.496zm0 9.629c22.2 0 40.18-17.868 40.18-40.125 0-22.262-17.98-40.352-40.18-40.352-22.27 0-40.24 18.09-40.24 40.352 0 22.257 17.97 40.125 40.24 40.125" transform="matrix(.13333 0 0 -.13333 0 71.053)"/></svg>